<svg version="1.2" baseProfile="tiny-ps" xmlns="http://www.w3.org/2000/svg" viewBox="0 0 1792 2344" width="1792" height="2344">
	<title>ifnmg-cortado</title>
	<style>
		tspan { white-space:pre }
		.shp0 { fill: #da251d } 
		.shp1 { fill: #69b92d } 
	</style>
	<g id="Background">
		<path id="Path 0" class="shp0" d="M274 2.04C266.57 3.03 255.77 4.79 250 5.96C244.22 7.12 233.65 9.68 226.5 11.65C219.35 13.62 208.1 17.25 201.5 19.71C194.9 22.17 182.3 27.72 173.5 32.05C164.7 36.37 152.65 42.97 146.73 46.71C140.8 50.44 130.45 57.63 123.73 62.68C117 67.73 106.78 76.18 101 81.46C95.22 86.73 86.31 95.65 81.18 101.28C76.06 106.9 67.73 117 62.68 123.73C57.63 130.45 50.44 140.8 46.71 146.73C42.97 152.65 36.37 164.7 32.05 173.5C27.72 182.3 22.17 194.9 19.71 201.5C17.25 208.1 13.62 219.35 11.64 226.5C9.67 233.65 6.96 245.13 5.63 252C4.3 258.88 2.6 269.23 1.85 275C0.99 281.73 0.53 295.01 0.59 312C0.66 333.98 1.06 340.97 2.89 353C4.11 360.98 6.22 372.45 7.58 378.5C8.94 384.55 10.98 392.65 12.11 396.5C13.25 400.35 15.98 408.68 18.19 415C20.4 421.32 25.19 433.02 28.85 441C32.51 448.97 39.02 461.34 43.33 468.5C47.63 475.65 54.23 485.77 57.98 491C61.73 496.23 67.79 504.1 71.44 508.5C75.08 512.9 83.34 521.85 89.78 528.39C96.23 534.93 105.78 543.86 111 548.24C116.22 552.62 124.78 559.28 130 563.03C135.22 566.78 145.35 573.37 152.5 577.67C159.66 581.98 172.03 588.51 180 592.18C187.98 595.86 202.6 601.55 212.5 604.84C222.4 608.13 235.68 611.96 242 613.35C248.32 614.74 258.23 616.57 264 617.43C269.77 618.28 280.57 619.48 288 620.1C295.76 620.75 309.15 620.98 319.5 620.64C329.4 620.32 342.9 619.35 349.5 618.48C356.1 617.62 367.13 615.76 374 614.36C380.88 612.96 391.56 610.28 397.75 608.4C403.94 606.53 414.06 603.15 420.25 600.89C426.44 598.63 438.25 593.5 446.5 589.47C454.75 585.45 467.13 578.64 474 574.33C480.88 570.02 490.77 563.29 496 559.37C501.23 555.44 509.32 548.89 514 544.81C518.67 540.72 527.09 532.69 532.7 526.94C538.31 521.2 546.08 512.67 549.97 508C553.86 503.32 560.75 494.2 565.27 487.72C569.8 481.25 576.66 470.45 580.51 463.72C584.37 457 590.06 445.88 593.15 439C596.25 432.13 600.6 421.32 602.81 415C605.03 408.68 608.02 399.45 609.44 394.5C610.87 389.55 613.33 378.98 614.92 371C616.5 363.02 618.41 351.77 619.15 346C619.97 339.56 620.48 325.65 620.46 310C620.44 295.1 619.9 280.55 619.15 275C618.45 269.77 616.98 260.55 615.88 254.5C614.79 248.45 612.31 237.43 610.37 230C608.43 222.57 604.59 210.43 601.84 203C599.09 195.57 593.3 182.3 588.96 173.5C584.63 164.7 578.03 152.65 574.29 146.73C570.56 140.8 563.37 130.45 558.32 123.73C553.27 117 544.94 106.9 539.82 101.28C534.69 95.66 526 86.95 520.5 81.94C515 76.92 506.9 70 502.5 66.57C498.1 63.13 490.23 57.37 485 53.77C479.77 50.17 470.1 44.13 463.5 40.35C456.9 36.57 445.88 30.94 439 27.85C432.13 24.76 421.77 20.54 416 18.48C410.23 16.41 401 13.43 395.5 11.86C390 10.28 380.1 7.89 373.5 6.53C366.9 5.18 354.52 3.15 346 2.03C334.09 0.46 325.52 0.01 309 0.11C294.57 0.19 283.06 0.83 274 2.04Z" />
		<path id="Path 1" class="shp1" d="M684.5 28.64C680.65 29.45 674.13 31.57 670 33.34C665.88 35.11 659.8 38.33 656.5 40.5C653.2 42.66 647.55 47.37 643.95 50.96C640.35 54.56 635.51 60.42 633.19 64C630.87 67.58 627.63 73.99 625.98 78.25C624.34 82.51 622.32 89.94 621.5 94.75C620.22 102.17 620.03 117.74 620.2 197.5C620.32 249.2 620.41 300.05 620.41 310.5C620.41 320.95 620.33 365.5 620.23 409.5C620.13 457.69 620.45 492.28 621.04 496.5C621.58 500.35 622.96 506.43 624.09 510C625.23 513.58 628.04 520.1 630.33 524.5C633.54 530.66 636.8 534.81 644.5 542.54C653.09 551.18 655.84 553.25 664 557.31C669.23 559.91 677.1 563.04 681.5 564.26L689.5 566.49C1017.16 567 1080.45 566.76 1087 566.02C1092.22 565.43 1098.53 564.34 1101 563.6C1103.47 562.86 1107.97 561.22 1111 559.94C1114.03 558.67 1118.97 556.07 1122 554.17C1125.03 552.26 1129.69 548.86 1132.36 546.6C1135.04 544.35 1139.36 539.8 1141.98 536.5C1144.59 533.2 1148.13 528.02 1149.83 525C1151.54 521.98 1154.07 516.24 1155.46 512.25C1156.86 508.26 1158.46 501.96 1159.03 498.25C1159.71 493.76 1159.96 424.92 1159.77 292.5L1159.49 93.5C1156.01 82.26 1153.59 76.19 1151.87 72.75C1150.14 69.31 1147.35 64.47 1145.66 62C1143.98 59.52 1140.32 55.08 1137.55 52.13C1134.77 49.18 1129.8 44.84 1126.5 42.5C1123.2 40.15 1117.69 36.83 1114.25 35.12C1110.81 33.4 1104.74 30.99 1100.75 29.75L1093.5 27.51C717.93 27.17 690.58 27.34 684.5 28.64ZM1277.5 28.66C1273.65 29.49 1267.8 31.27 1264.5 32.62C1261.2 33.97 1255.58 36.82 1252 38.97C1248.42 41.11 1243.07 45.04 1240.09 47.68C1237.11 50.33 1232.78 54.98 1230.47 58C1228.15 61.02 1224.65 66.42 1222.68 70C1220.72 73.58 1217.85 80.55 1216.31 85.5L1213.5 94.5C1213 488.23 1213.04 492.18 1214.99 501.75C1216.4 508.65 1218.43 514.42 1221.94 521.5C1224.7 527.07 1229.21 534.16 1232.12 537.5C1235 540.8 1239.86 545.64 1242.92 548.25C1245.99 550.86 1252.55 555.03 1257.5 557.52C1262.45 560.01 1270.33 563.05 1275 564.27L1283.5 566.5C1672.51 566.5 1681.86 566.42 1689.5 564.65C1693.9 563.63 1701.33 561.02 1706 558.85C1710.67 556.67 1717.65 552.5 1721.5 549.56C1725.35 546.63 1731.03 541.14 1734.13 537.37C1737.22 533.59 1741.14 528.02 1742.84 525C1744.54 521.98 1747.04 516.35 1748.39 512.5C1749.75 508.65 1751.34 502.57 1751.92 499C1752.65 494.57 1752.99 430.12 1752.99 296.25C1753 121.08 1752.83 99.17 1751.42 92.25C1750.54 87.99 1748.53 81.35 1746.95 77.5C1745.36 73.65 1742.18 67.58 1739.88 64C1737.57 60.42 1733.39 55.08 1730.59 52.13C1727.79 49.18 1722.8 44.84 1719.5 42.5C1716.2 40.15 1710.69 36.83 1707.25 35.12C1703.81 33.4 1697.74 30.99 1693.75 29.75L1686.5 27.51C1309.38 27.17 1283.63 27.34 1277.5 28.66ZM184.5 620.04L92.5 620.58C81.65 624.16 75.13 626.95 71 629.07C66.88 631.2 60.46 635.43 56.75 638.47C53.04 641.51 47.76 646.81 45.03 650.25C42.29 653.69 38.25 660.1 36.04 664.5C33.84 668.9 31.01 676.33 29.77 681L27.5 689.5L27.5 1089.5C31.02 1102.67 33.41 1109.42 35.09 1113C36.78 1116.58 40.09 1122.2 42.46 1125.5C44.83 1128.8 49.41 1134 52.63 1137.05C55.86 1140.11 60.75 1144.13 63.5 1146C66.25 1147.86 71.2 1150.64 74.5 1152.17C77.8 1153.71 84.33 1155.98 89 1157.23L97.5 1159.5L496.5 1159.5C509.68 1155.99 516.88 1153.38 521 1151.43C525.13 1149.47 531.65 1145.48 535.5 1142.55C539.35 1139.63 545.03 1134.14 548.13 1130.37C551.22 1126.59 555.14 1121.03 556.84 1118C558.54 1114.97 561.04 1109.35 562.39 1105.5C563.74 1101.65 565.35 1095.58 565.96 1092C566.76 1087.33 566.99 1029.16 566.79 885.5L566.5 685.5C562.84 674.65 560.21 668.35 558.3 664.5C556.4 660.65 553.35 655.48 551.53 653C549.72 650.52 545.14 645.57 541.36 641.99C537.59 638.4 531.8 633.82 528.5 631.8C525.2 629.78 519.35 626.93 515.5 625.47C511.65 624.01 505.57 622.19 502 621.43C496.73 620.32 479.63 620.09 411.5 620.26C365.3 620.38 318.73 620.46 308 620.45C297.27 620.45 285.8 620.23 282.5 619.97C279.2 619.71 235.1 619.74 184.5 620.04ZM688.65 620.77C687.09 621.03 682.59 622.14 678.65 623.23C674.72 624.33 668.8 626.58 665.5 628.23C662.2 629.88 656.8 633.14 653.5 635.48C650.2 637.81 645.25 642.16 642.5 645.15C639.75 648.14 635.73 653.27 633.56 656.54C631.39 659.82 628.59 664.75 627.33 667.5C626.08 670.25 624.03 676.33 622.78 681L620.5 689.5L620.5 1091.5C624.76 1105.06 627.18 1111.36 628.62 1114.25C630.06 1117.14 633.16 1122.2 635.5 1125.5C637.85 1128.8 642.41 1134 645.63 1137.05C648.86 1140.11 653.75 1144.13 656.5 1146C659.25 1147.86 664.2 1150.64 667.5 1152.17C670.8 1153.71 677.33 1155.98 682 1157.23L690.5 1159.5L1089.5 1159.5C1102.67 1155.99 1109.88 1153.38 1114 1151.43C1118.13 1149.47 1124.65 1145.48 1128.5 1142.55C1132.35 1139.63 1138.03 1134.14 1141.13 1130.37C1144.22 1126.59 1148.14 1121.03 1149.84 1118C1151.54 1114.97 1154.07 1109.24 1155.46 1105.25C1156.86 1101.26 1158.46 1094.96 1159.03 1091.25C1159.71 1086.76 1159.96 1017.92 1159.77 885.5L1159.49 686.5C1155.89 674.88 1152.74 667.47 1150.17 662.53C1146.93 656.31 1143.21 651.16 1138 645.67C1133.88 641.32 1127.58 635.83 1124 633.46C1120.42 631.09 1113.9 627.72 1109.5 625.96C1105.1 624.2 1098.58 622.15 1095 621.4C1089.62 620.27 1054.22 620.06 890 620.17C780.83 620.24 690.22 620.51 688.65 620.77ZM93 1214.11C90.53 1214.59 86.25 1215.73 83.5 1216.64C80.75 1217.54 75.8 1219.62 72.5 1221.26C69.2 1222.9 63.8 1226.14 60.5 1228.48C57.2 1230.81 52.25 1235.16 49.5 1238.15C46.75 1241.14 42.73 1246.27 40.56 1249.54C38.39 1252.82 35.59 1257.75 34.33 1260.5C33.08 1263.25 31.03 1269.33 29.78 1274L27.5 1282.5L27.5 1682.5C31.02 1695.67 33.41 1702.42 35.09 1706C36.78 1709.58 40.08 1715.2 42.44 1718.5C44.8 1721.8 49.6 1727.21 53.12 1730.53C56.63 1733.84 62.88 1738.56 67 1741.01C71.13 1743.46 78.1 1746.69 82.5 1748.19C87.67 1749.95 94.57 1751.31 102 1752.01C110 1752.77 171.93 1753.01 305.5 1752.79L497.5 1752.48C509.9 1748.97 516.42 1746.58 520 1744.89C523.58 1743.21 528.95 1740.18 531.94 1738.16C534.94 1736.15 540.08 1731.8 543.37 1728.5C546.66 1725.2 551.43 1719.35 553.97 1715.5C556.5 1711.65 559.77 1705.35 561.22 1701.5C562.68 1697.65 564.46 1692.7 565.17 1690.5C566.22 1687.29 566.53 1647.33 566.76 1487C566.96 1354.03 566.71 1285.25 566.03 1280.75C565.46 1277.04 563.66 1270.29 562.01 1265.75C560.37 1261.21 556.88 1254.23 554.26 1250.24C551.64 1246.25 546.8 1240.25 543.5 1236.91C540.2 1233.56 534.35 1228.74 530.5 1226.19C526.65 1223.64 520.35 1220.29 516.5 1218.74C512.65 1217.2 506.24 1215.27 502.25 1214.47C496.01 1213.2 467.21 1213.02 296.25 1213.11C185.23 1213.17 95.51 1213.61 93 1214.11ZM686 1214.11C683.52 1214.59 679.25 1215.73 676.5 1216.64C673.75 1217.54 668.8 1219.62 665.5 1221.26C662.2 1222.9 656.8 1226.15 653.5 1228.48C650.2 1230.81 644.85 1235.6 641.6 1239.11C638.36 1242.63 633.74 1248.88 631.33 1253C628.92 1257.13 625.88 1263.88 624.57 1268C623.26 1272.13 621.67 1279.1 621.04 1283.5C620.21 1289.34 619.98 1344.62 620.2 1488L620.5 1684.5C624.76 1698.06 627.18 1704.36 628.62 1707.25C630.06 1710.14 633.15 1715.2 635.48 1718.5C637.82 1721.8 642.6 1727.21 646.12 1730.53C649.63 1733.84 655.88 1738.56 660 1741.01C664.13 1743.46 671.1 1746.69 675.5 1748.18C680.25 1749.79 687.77 1751.33 694 1751.96C700.98 1752.66 767.02 1753.01 891 1753C1008.79 1752.99 1080.82 1752.61 1086.5 1751.98C1091.45 1751.43 1098.65 1750.04 1102.5 1748.9C1106.35 1747.75 1112.65 1745.17 1116.49 1743.16C1120.34 1741.15 1126.19 1737.34 1129.49 1734.7C1132.8 1732.06 1137.69 1727.34 1140.37 1724.2C1143.05 1721.07 1146.97 1715.58 1149.09 1712C1151.21 1708.42 1154.08 1702.24 1155.47 1698.25C1156.86 1694.26 1158.46 1687.96 1159.03 1684.25C1159.71 1679.75 1159.96 1610.93 1159.77 1478L1159.49 1278.5C1155.42 1266.88 1153.47 1261.7 1152.52 1259.5C1151.57 1257.3 1148.86 1252.58 1146.5 1249C1144.14 1245.42 1138.9 1239.34 1134.86 1235.48C1130.81 1231.62 1124.58 1226.69 1121 1224.53C1117.42 1222.38 1111.8 1219.56 1108.5 1218.29C1105.2 1217.01 1099.24 1215.3 1095.25 1214.48C1088.98 1213.2 1061.27 1213.01 889.25 1213.11C778.23 1213.17 688.51 1213.61 686 1214.11ZM1281 1213.69C1279.63 1213.92 1276.03 1214.79 1273 1215.63C1269.97 1216.47 1264.8 1218.34 1261.5 1219.78C1258.2 1221.22 1252.8 1224.19 1249.5 1226.39C1246.2 1228.59 1241.08 1232.67 1238.13 1235.45C1235.18 1238.23 1230.84 1243.2 1228.5 1246.5C1226.16 1249.8 1223.06 1254.86 1221.62 1257.75C1220.18 1260.64 1217.76 1266.94 1216.25 1271.75L1213.5 1280.5C1213.5 1675.58 1213.57 1683.78 1215.37 1690.5C1216.39 1694.35 1218.79 1700.88 1220.69 1705C1222.58 1709.13 1226.07 1715.2 1228.43 1718.5C1230.8 1721.8 1235.6 1727.21 1239.12 1730.53C1242.63 1733.84 1248.88 1738.56 1253 1741.01C1257.13 1743.46 1264.1 1746.69 1268.5 1748.19C1273.67 1749.95 1280.57 1751.31 1288 1752.01C1296 1752.77 1357.93 1753.01 1491.5 1752.79L1683.5 1752.48C1695.9 1749.04 1703.55 1746 1708.5 1743.51C1713.45 1741.03 1720.2 1736.67 1723.5 1733.82C1726.8 1730.98 1731.44 1726.37 1733.82 1723.58C1736.19 1720.78 1739.65 1716.03 1741.5 1713C1743.36 1709.97 1745.99 1704.58 1747.35 1701C1748.7 1697.42 1750.55 1690.9 1751.44 1686.5C1752.9 1679.26 1753.03 1659.56 1752.77 1479L1752.49 1279.5C1748.89 1267.88 1745.74 1260.47 1743.17 1255.53C1739.93 1249.31 1736.21 1244.16 1731 1238.67C1726.88 1234.32 1720.35 1228.69 1716.5 1226.16C1712.65 1223.62 1706.35 1220.29 1702.5 1218.74C1698.65 1217.2 1692.24 1215.27 1688.25 1214.47C1682.01 1213.2 1653.28 1213.02 1482.25 1213.14C1372.94 1213.21 1282.38 1213.46 1281 1213.69ZM89.5 1807.91C85.65 1808.88 79.8 1810.79 76.5 1812.15C73.2 1813.5 67.8 1816.37 64.5 1818.51C61.2 1820.66 55.08 1825.81 50.9 1829.96C46.31 1834.52 41.46 1840.66 38.63 1845.5C36.06 1849.9 32.88 1856.88 31.57 1861C30.26 1865.13 28.69 1871.99 28.09 1876.25C27.33 1881.63 27 1942.53 27 2075.5C27 2208.47 27.33 2269.37 28.09 2274.75C28.69 2279.01 30.26 2285.88 31.57 2290C32.88 2294.13 35.99 2300.99 38.47 2305.25C40.96 2309.51 45.64 2315.81 48.86 2319.25C52.08 2322.69 58.04 2327.81 62.11 2330.63C66.17 2333.46 72.42 2337.01 76 2338.52C79.58 2340.04 84.75 2341.88 87.5 2342.63C91.62 2343.74 128.44 2343.98 297 2343.97C477.46 2343.96 502.21 2343.78 507.5 2342.43C510.8 2341.59 517.55 2338.9 522.5 2336.46C527.45 2334.01 534.2 2329.68 537.5 2326.83C540.8 2323.99 545.45 2319.37 547.83 2316.58C550.21 2313.78 553.91 2308.57 556.05 2305C558.19 2301.43 561.05 2295.35 562.4 2291.5C563.75 2287.65 565.34 2281.57 565.92 2278C566.65 2273.57 566.98 2209.22 566.98 2075.5C566.98 1941.78 566.65 1877.43 565.92 1873C565.34 1869.42 563.75 1863.35 562.4 1859.5C561.05 1855.65 558.19 1849.58 556.05 1846C553.91 1842.42 550.02 1837.03 547.41 1834C544.79 1830.97 540.37 1826.55 537.58 1824.18C534.79 1821.8 529.58 1818.21 526 1816.21C522.42 1814.2 515.67 1811.2 511 1809.53L502.5 1806.5C108.04 1806.14 96.1 1806.23 89.5 1807.91ZM682.5 1807.91C678.65 1808.88 672.8 1810.8 669.5 1812.16C666.2 1813.52 660.8 1816.37 657.5 1818.48C654.2 1820.59 648.86 1824.83 645.63 1827.91C642.41 1830.98 637.85 1836.2 635.5 1839.5C633.16 1842.8 630.06 1847.86 628.62 1850.75C627.18 1853.64 624.76 1859.94 623.25 1864.75L620.5 1873.5L620.5 2277.5C624.76 2291.06 627.18 2297.36 628.62 2300.25C630.06 2303.14 633.17 2308.2 635.53 2311.5C637.89 2314.8 642.23 2319.81 645.16 2322.63C648.1 2325.46 653.2 2329.6 656.5 2331.83C659.8 2334.06 665.42 2337.1 669 2338.58C672.58 2340.06 677.75 2341.88 680.5 2342.62C684.63 2343.74 721.13 2343.98 890 2343.97C1073.13 2343.96 1095.13 2343.8 1100.5 2342.38C1103.8 2341.52 1109.2 2339.58 1112.5 2338.09C1115.8 2336.59 1120.97 2333.71 1124 2331.68C1127.03 2329.65 1132.36 2325.18 1135.85 2321.74C1139.34 2318.31 1144.4 2312.13 1147.11 2308C1149.81 2303.88 1153.37 2296.79 1155.01 2292.25C1156.66 2287.71 1158.46 2280.96 1159.03 2277.25C1159.71 2272.75 1159.96 2203.9 1159.78 2071L1159.5 1871.5C1154.38 1856.78 1151.16 1849.58 1149.03 1846C1146.9 1842.42 1143.02 1837.03 1140.41 1834C1137.79 1830.97 1133.37 1826.55 1130.58 1824.18C1127.79 1821.8 1122.58 1818.21 1119 1816.21C1115.42 1814.2 1108.67 1811.2 1104 1809.53L1095.5 1806.5C701.04 1806.14 689.1 1806.23 682.5 1807.91Z" />
	</g>
</svg>