<svg version="1.2" baseProfile="tiny-ps" xmlns="http://www.w3.org/2000/svg" viewBox="0 0 524 255" width="524" height="255">
	<title>unimontes-cortada</title>
	<style>
		tspan { white-space:pre }
		.shp0 { fill: #29166f } 
	</style>
	<path id="Path 0" fill-rule="evenodd" class="shp0" d="M185.25 1.07C185.66 1.03 202.09 10.28 221.75 21.62C241.41 32.95 258.63 42.89 260 43.69C262.41 45.1 263.75 44.43 297.5 24.99C316.75 13.9 333.74 3.96 335.25 2.91C336.76 1.86 338.45 1 339 1C339.55 1 371.61 19.27 410.25 41.6C448.89 63.92 482.52 83.68 485 85.49C487.48 87.3 492.99 92.43 497.25 96.89C501.51 101.35 507.03 108.49 509.5 112.75C511.98 117.01 515.31 124.1 516.91 128.5C518.51 132.9 520.58 140.55 521.53 145.5C522.76 152 523.09 157.28 522.7 164.5C522.4 170.01 521.06 178.76 519.72 184C518.31 189.52 515.24 197.48 512.41 203C509.72 208.23 505 215.65 501.92 219.5C498.83 223.35 492.75 229.38 488.41 232.91C483.84 236.61 476.27 241.37 470.5 244.17C464.84 246.92 456.16 250.1 450.5 251.5C442.78 253.41 437.87 253.98 429 253.98C419.92 253.98 415.39 253.44 407.5 251.42C402 250.01 394.35 247.38 390.5 245.56C386.65 243.75 356.5 226.62 323.5 207.5C290.5 188.39 263.05 172.74 262.5 172.74C261.95 172.73 234.05 188.61 200.5 208.02C166.95 227.43 136.69 244.59 133.25 246.16C129.81 247.72 122.61 250.12 117.25 251.49C109.72 253.42 104.94 253.98 96.25 253.99C88.37 254 82.38 253.38 76.25 251.94C71.44 250.81 64.35 248.62 60.5 247.07C56.65 245.52 51.03 242.8 48 241.02C44.97 239.24 39.41 235.25 35.63 232.14C31.85 229.04 26.39 223.57 23.49 220C20.59 216.43 16.76 211.02 14.98 208C13.2 204.98 10.4 199.13 8.74 195C7.09 190.88 4.9 183.45 3.88 178.5C2.86 173.55 2.02 166.13 2 162C1.99 157.88 2.64 150.68 3.46 146C4.27 141.32 6.01 134.35 7.32 130.5C8.64 126.65 10.96 121.02 12.48 118C14 114.98 17.16 109.8 19.51 106.5C21.86 103.2 27.09 97.31 31.14 93.41C35.19 89.51 40.49 85.01 42.93 83.41C45.36 81.81 78.21 62.64 115.93 40.82C153.64 18.99 184.84 1.1 185.25 1.07ZM57 113.36C54.53 115.24 50.62 119.19 48.32 122.14C46.02 125.09 42.8 130.2 41.17 133.5C39.53 136.8 37.42 142.43 36.49 146C35.19 150.96 34.91 155.1 35.28 163.5C35.64 171.46 36.42 176.3 38.08 181C39.35 184.57 42.49 190.65 45.06 194.5C47.63 198.35 51.8 203.3 54.33 205.5C56.85 207.7 61.3 210.95 64.21 212.73C67.12 214.51 72.09 216.87 75.25 217.98C78.41 219.09 84.26 220.46 88.25 221.02C93.32 221.74 97.9 221.72 103.5 220.95C107.9 220.35 113.97 218.87 117 217.66C120.03 216.45 171.44 187.23 231.25 152.73L340 90C437.06 145.97 441.65 148.85 443.71 152.5C445.09 154.95 445.98 158.25 446.01 161C446.04 164.06 445.33 166.6 443.78 168.95C442.53 170.85 439.93 173.45 438 174.73C435.48 176.41 433.1 177.05 429.5 177.02C424.81 176.99 421.82 175.44 382 152.45C345.57 131.41 339.21 128.06 337.5 128.99C336.4 129.59 326.77 135.12 316.1 141.29C305.42 147.45 296.65 152.92 296.6 153.43C296.54 153.93 320.57 168.24 350 185.21C379.43 202.18 405.75 216.9 408.5 217.93C411.25 218.96 416.99 220.3 421.25 220.9C426.16 221.6 431.47 221.69 435.75 221.14C439.46 220.67 445.65 219.24 449.5 217.96C453.35 216.69 459.88 213.34 464 210.52C468.16 207.68 473.64 202.75 476.3 199.45C478.94 196.18 482.42 190.8 484.03 187.5C485.64 184.2 487.64 178.8 488.48 175.5C489.32 172.2 490 165.68 489.99 161C489.98 156.32 489.3 149.69 488.49 146.25C487.67 142.81 485.45 136.96 483.55 133.25C481.66 129.54 478.39 124.39 476.3 121.82C474.21 119.25 470.25 115.38 467.5 113.22C464.75 111.07 435.5 93.74 402.5 74.71C369.5 55.69 341.82 39.86 341 39.54C340.1 39.2 291.8 66.51 220 107.97C106.02 173.78 100.27 176.97 95.5 177.01C91.89 177.04 89.53 176.41 87 174.73C85.08 173.45 82.45 170.85 81.16 168.95C79.25 166.13 78.89 164.5 79.19 160C79.42 156.57 80.34 153.37 81.63 151.5C83.12 149.33 103.73 136.91 156.3 106.5C196.23 83.4 228.59 64.21 228.2 63.85C227.82 63.5 218.05 57.76 206.5 51.1C194.95 44.43 185.05 39.03 184.5 39.09C183.95 39.16 156.05 55.12 122.5 74.57C88.95 94.03 59.47 111.48 57 113.36Z" />
</svg>